<?xml version="1.0" encoding="UTF-8" standalone="no"?>
<!-- Created with Inkscape (http://www.inkscape.org/) -->

<svg
   width="700mm"
   height="200mm"
   viewBox="0 0 700 200"
   version="1.1"
   id="svg5"
   inkscape:version="1.1.1 (3bf5ae0d25, 2021-09-20)"
   sodipodi:docname="darlinglogo-long.svg"
   inkscape:export-filename="C:\Users\jules\Desktop\darling\website\assets\images\logo-long.png"
   inkscape:export-xdpi="750"
   inkscape:export-ydpi="750"
   xmlns:inkscape="http://www.inkscape.org/namespaces/inkscape"
   xmlns:sodipodi="http://sodipodi.sourceforge.net/DTD/sodipodi-0.dtd"
   xmlns="http://www.w3.org/2000/svg"
   xmlns:svg="http://www.w3.org/2000/svg">
  <sodipodi:namedview
     id="namedview7"
     pagecolor="#ffffff"
     bordercolor="#666666"
     borderopacity="1.0"
     inkscape:pageshadow="2"
     inkscape:pageopacity="0"
     inkscape:pagecheckerboard="true"
     inkscape:document-units="mm"
     showgrid="false"
     inkscape:zoom="0.35723205"
     inkscape:cx="1354.8616"
     inkscape:cy="398.90038"
     inkscape:window-width="2400"
     inkscape:window-height="1261"
     inkscape:window-x="2391"
     inkscape:window-y="-9"
     inkscape:window-maximized="1"
     inkscape:current-layer="text11149" />
  <defs
     id="defs2" />
  <g
     inkscape:groupmode="layer"
     id="layer2"
     inkscape:label="Layer 2" />
  <g
     inkscape:label="Layer 1"
     inkscape:groupmode="layer"
     id="layer1">
    <path
       id="rect9657"
       style="fill:#0081c9;fill-opacity:1"
       d="M 59.667707,21.861592 H 640.33229 c 8.31,0 15,6.689999 15,14.999997 V 163.13841 c 0,8.31 -6.69,15 -15,15 H 59.667707 c -8.309998,0 -14.999997,-6.69 -14.999997,-15 V 36.861589 c 0,-8.309998 6.689999,-14.999997 14.999997,-14.999997 z"
       sodipodi:nodetypes="sssssssss" />
    <g
       aria-label="DARLING"
       id="text11149"
       style="font-size:123.472px;line-height:1.25;font-family:'Britannic Bold';-inkscape-font-specification:'Britannic Bold, Normal';fill:#fffae6;stroke-width:0.264583">
      <path
         d="M 172.72796,141.14728 V 58.852707 h 34.1236 q 36.35431,0 36.35431,41.237723 0,41.05685 -37.68066,41.05685 z m 23.87446,-6.81267 h 6.27007 q 8.62133,0 11.93723,-7.41555 3.3159,-7.47584 3.3159,-26.949212 0,-19.473367 -3.3159,-26.888922 -3.25561,-7.415554 -11.93723,-7.415554 h -6.27007 z"
         id="path828" />
      <path
         d="m 291.13568,58.852707 22.90984,82.294573 h -23.99505 l -4.88341,-17.84556 h -24.7788 l -5.24515,17.84556 h -9.34481 l 24.35678,-82.294573 z m -28.39615,56.189403 h 20.19683 l -9.70653,-36.474879 z"
         id="path830" />
      <path
         d="M 320.49645,141.14728 V 58.852707 h 35.38968 q 13.80619,0 22.0658,5.84804 8.2596,5.78775 8.2596,15.554578 0,14.951687 -17.72499,19.473367 9.10365,3.376188 11.75637,7.415558 2.71301,4.03936 3.67763,15.67515 1.14549,13.86649 4.64226,18.32788 h -25.9243 q -2.47185,-5.72746 -2.47185,-14.28851 l -0.12058,-4.88341 -0.12057,-6.14949 q 0,-14.22822 -11.45493,-14.22822 h -4.09965 v 39.54963 z m 23.87447,-46.362291 h 4.82312 q 13.56504,0 13.56504,-14.16793 0,-14.16793 -13.56504,-14.16793 h -4.82312 z"
         id="path832" />
      <path
         d="m 422.38496,58.852707 v 74.034973 h 33.82216 v 8.2596 H 398.51049 V 58.852707 Z"
         id="path834" />
      <path
         d="M 485.20617,58.852707 V 141.14728 H 461.3317 V 58.852707 Z"
         id="path836" />
      <path
         d="M 559.66316,58.852707 V 141.14728 H 541.39558 L 507.03081,89.057528 v 52.089752 h -8.01844 V 58.852707 h 15.13255 l 37.4998,56.249693 V 58.852707 Z"
         id="path838" />
      <path
         d="m 605.60344,96.714239 h 33.88245 v 44.433041 h -7.59642 l -2.59243,-5.66717 q -9.9477,7.05382 -21.04088,7.05382 -18.26759,0 -28.39615,-10.91232 -10.06828,-10.97261 -10.06828,-30.868 0,-19.352793 10.67117,-31.290028 10.73145,-11.997523 28.03441,-11.997523 22.78927,0 27.73297,23.271578 l -11.21377,5.12457 v -1.989539 l -0.18086,-4.46139 q -1.14549,-14.529664 -13.44446,-14.529664 -9.04336,0 -12.35926,7.717 -3.3159,7.717 -3.3159,28.757886 0,19.65423 2.65272,26.70805 2.71301,7.05382 10.24914,7.05382 8.86249,0 8.86249,-9.8874 v -20.25713 h -11.87694 z"
         id="path840" />
    </g>
    <g
       id="g2671"
       style="fill:#fffae6;fill-opacity:1"
       transform="translate(15.074958,-18.197177)"
       inkscape:export-filename="C:\Users\jules\Desktop\darling\website\assets\images\logo-long.png"
       inkscape:export-xdpi="750"
       inkscape:export-ydpi="750">
      <path
         id="rect846"
         style="fill:#fffae6;fill-opacity:1;stroke:none;stroke-width:3.73852"
         d="M 304.41016,202.92969 V 690.5293 h 171.94476 c 31.40787,0 56.6914,-25.28549 56.6914,-56.69336 V 259.62109 c 0,-31.40787 -25.28353,-56.6914 -56.6914,-56.6914 z m 0.0215,45.37304 h 75.58984 c 31.40788,0 56.69336,25.28549 56.69336,56.69336 v 283.46485 c 0,31.40787 -25.28548,56.69336 -56.69336,56.69336 h -75.58984 z"
         transform="scale(0.26458333)"
         sodipodi:nodetypes="ccssssccsssscc" />
      <path
         id="path1884"
         style="fill:#fffae6;fill-opacity:1;stroke:none"
         d="m 80.541854,65.697181 h -20 c -8.31,0 -15,6.69 -15,15 v 74.999989 c 0,8.31 6.69,15 15,15 h 20 z"
         sodipodi:nodetypes="csssscc" />
    </g>
  </g>
</svg>
