<?xml version="1.0" encoding="UTF-8" standalone="no"?>
<!-- Created with Inkscape (http://www.inkscape.org/) -->

<svg
   width="200mm"
   height="200mm"
   viewBox="0 0 200 200"
   version="1.1"
   id="svg5"
   inkscape:version="1.1.1 (3bf5ae0d25, 2021-09-20)"
   sodipodi:docname="darlinglogo.svg"
   inkscape:export-filename="C:\Users\jules\Desktop\darling\logo\logo.png"
   inkscape:export-xdpi="750"
   inkscape:export-ydpi="750"
   xmlns:inkscape="http://www.inkscape.org/namespaces/inkscape"
   xmlns:sodipodi="http://sodipodi.sourceforge.net/DTD/sodipodi-0.dtd"
   xmlns="http://www.w3.org/2000/svg"
   xmlns:svg="http://www.w3.org/2000/svg">
  <sodipodi:namedview
     id="namedview7"
     pagecolor="#ffffff"
     bordercolor="#666666"
     borderopacity="1.0"
     inkscape:pageshadow="2"
     inkscape:pageopacity="0"
     inkscape:pagecheckerboard="true"
     inkscape:document-units="mm"
     showgrid="false"
     inkscape:zoom="0.71446409"
     inkscape:cx="355.51122"
     inkscape:cy="368.8079"
     inkscape:window-width="2400"
     inkscape:window-height="1261"
     inkscape:window-x="2391"
     inkscape:window-y="-9"
     inkscape:window-maximized="1"
     inkscape:current-layer="layer1" />
  <defs
     id="defs2" />
  <g
     inkscape:groupmode="layer"
     id="layer2"
     inkscape:label="Layer 2" />
  <g
     inkscape:label="Layer 1"
     inkscape:groupmode="layer"
     id="layer1">
    <rect
       style="fill:#0081c9;fill-opacity:1;stroke:none;stroke-width:1"
       id="rect9657"
       width="127.39152"
       height="181.08853"
       x="36.304241"
       y="9.4557343"
       ry="14.999997" />
    <g
       aria-label="DARLING"
       id="text11149"
       style="font-size:25.4px;line-height:1.25;font-family:'Britannic Bold';-inkscape-font-specification:'Britannic Bold, Normal';fill:#fffae6;stroke-width:0.264583">
      <path
         d="m 51.99053,180.66693 v -16.9292 h 7.019727 q 7.478613,0 7.478613,8.48321 0,8.44599 -7.751465,8.44599 z m 4.911328,-1.40146 h 1.289844 q 1.773535,0 2.455664,-1.52549 0.682129,-1.53789 0.682129,-5.54385 0,-4.00596 -0.682129,-5.53144 -0.669726,-1.52549 -2.455664,-1.52549 h -1.289844 z"
         id="path828" />
      <path
         d="m 76.348732,163.73773 4.712891,16.9292 H 76.12549 l -1.00459,-3.67109 h -5.097363 l -1.079004,3.67109 H 67.02217 l 5.010547,-16.9292 z m -5.841504,11.55899 h 4.154786 l -1.996778,-7.50342 z"
         id="path830" />
      <path
         d="m 82.388674,180.66693 v -16.9292 h 7.280176 q 2.840136,0 4.539258,1.20303 1.699121,1.19062 1.699121,3.1998 0,3.07579 -3.646289,4.00596 1.872753,0.69453 2.418457,1.52549 0.558105,0.83096 0.756543,3.22461 0.235644,2.85254 0.95498,3.77031 h -5.333008 q -0.508496,-1.17822 -0.508496,-2.93935 l -0.0248,-1.00459 -0.02481,-1.26504 q 0,-2.92696 -2.356445,-2.92696 h -0.84336 v 8.13594 z m 4.911328,-9.5374 h 0.992188 q 2.790527,0 2.790527,-2.91455 0,-2.91455 -2.790527,-2.91455 h -0.992188 z"
         id="path832" />
      <path
         d="m 103.34863,163.73773 v 15.23008 h 6.95772 v 1.69912 H 98.437304 v -16.9292 z"
         id="path834" />
      <path
         d="m 116.27187,163.73773 v 16.9292 h -4.91132 v -16.9292 z"
         id="path836" />
      <path
         d="m 131.58877,163.73773 v 16.9292 h -3.75791 l -7.06933,-10.71562 v 10.71562 h -1.64952 v -16.9292 h 3.11299 l 7.71426,11.57139 v -11.57139 z"
         id="path838" />
      <path
         d="m 141.03935,171.5264 h 6.97012 v 9.14053 h -1.56269 l -0.53331,-1.16582 q -2.04638,1.45108 -4.32841,1.45108 -3.75791,0 -5.84151,-2.24483 -2.07119,-2.25723 -2.07119,-6.35 0,-3.98115 2.19522,-6.43682 2.20761,-2.46806 5.76709,-2.46806 4.68808,0 5.70507,4.7873 l -2.30683,1.0542 v -0.40928 l -0.0372,-0.91777 q -0.23564,-2.98896 -2.76572,-2.98896 -1.86035,0 -2.54248,1.5875 -0.68213,1.5875 -0.68213,5.91591 0,4.04317 0.5457,5.49424 0.55811,1.45108 2.1084,1.45108 1.82315,0 1.82315,-2.03399 v -4.16718 h -2.44327 z"
         id="path840" />
    </g>
    <g
       id="g2671"
       style="fill:#fffae6;fill-opacity:1"
       transform="translate(6.7114882,-31.158526)"
       inkscape:export-filename="C:\Users\jules\Desktop\darling\website\assets\images\logo.png"
       inkscape:export-xdpi="750"
       inkscape:export-ydpi="750">
      <path
         id="rect846"
         style="fill:#fffae6;fill-opacity:1;stroke:none;stroke-width:3.73852"
         d="M 304.41016,202.92969 V 690.5293 h 171.94476 c 31.40787,0 56.6914,-25.28549 56.6914,-56.69336 V 259.62109 c 0,-31.40787 -25.28353,-56.6914 -56.6914,-56.6914 z m 0.0215,45.37304 h 75.58984 c 31.40788,0 56.69336,25.28549 56.69336,56.69336 v 283.46485 c 0,31.40787 -25.28548,56.69336 -56.69336,56.69336 h -75.58984 z"
         transform="scale(0.26458333)"
         sodipodi:nodetypes="ccssssccsssscc" />
      <path
         id="path1884"
         style="fill:#fffae6;fill-opacity:1;stroke:none"
         d="m 80.541854,65.697181 h -20 c -8.31,0 -15,6.69 -15,15 v 74.999989 c 0,8.31 6.69,15 15,15 h 20 z"
         sodipodi:nodetypes="csssscc" />
    </g>
  </g>
</svg>
