<?xml version="1.0" encoding="UTF-8" standalone="no"?>
<!-- Created with Inkscape (http://www.inkscape.org/) -->

<svg
   width="700mm"
   height="200mm"
   viewBox="0 0 700 200"
   version="1.1"
   id="svg62603"
   inkscape:version="1.1.1 (3bf5ae0d25, 2021-09-20)"
   sodipodi:docname="storedesk-logo.svg"
   inkscape:export-filename="C:\Users\jules\Desktop\darling\logo\storedesklogo.png"
   inkscape:export-xdpi="750"
   inkscape:export-ydpi="750"
   xmlns:inkscape="http://www.inkscape.org/namespaces/inkscape"
   xmlns:sodipodi="http://sodipodi.sourceforge.net/DTD/sodipodi-0.dtd"
   xmlns="http://www.w3.org/2000/svg"
   xmlns:svg="http://www.w3.org/2000/svg">
  <sodipodi:namedview
     id="namedview62605"
     pagecolor="#ffffff"
     bordercolor="#666666"
     borderopacity="1.0"
     inkscape:pageshadow="2"
     inkscape:pageopacity="0.0"
     inkscape:pagecheckerboard="0"
     inkscape:document-units="mm"
     showgrid="false"
     inkscape:zoom="0.2526012"
     inkscape:cx="995.64056"
     inkscape:cy="607.67724"
     inkscape:window-width="1920"
     inkscape:window-height="991"
     inkscape:window-x="-9"
     inkscape:window-y="-9"
     inkscape:window-maximized="1"
     inkscape:current-layer="layer1" />
  <defs
     id="defs62600" />
  <g
     inkscape:label="Layer 1"
     inkscape:groupmode="layer"
     id="layer1">
    <path
       id="path67062"
       style="fill:#f79700;fill-opacity:1;stroke-width:2.89086"
       d="M 384.34766,214.07617 A 297.75864,182.12421 0 0 0 86.589844,396.20117 297.75864,182.12421 0 0 0 384.34766,578.32422 297.75864,182.12421 0 0 0 682.10742,396.20117 297.75864,182.12421 0 0 0 384.34766,214.07617 Z M 225.90625,344.16406 a 52.035487,52.035487 0 0 1 52.03516,52.03711 52.035487,52.035487 0 0 1 -52.03516,52.03516 52.035487,52.035487 0 0 1 -52.03516,-52.03516 52.035487,52.035487 0 0 1 52.03516,-52.03711 z m 158.44141,0 a 52.035488,52.035488 0 0 1 52.03711,52.03711 52.035488,52.035488 0 0 1 -52.03711,52.03516 52.035488,52.035488 0 0 1 -52.03516,-52.03516 52.035488,52.035488 0 0 1 52.03516,-52.03711 z m 158.44336,0 a 52.035489,52.035489 0 0 1 52.03515,52.03711 52.035489,52.035489 0 0 1 -52.03515,52.03516 52.035489,52.035489 0 0 1 -52.03516,-52.03516 52.035489,52.035489 0 0 1 52.03516,-52.03711 z"
       transform="scale(0.26458333)" />
    <g
       aria-label="STOREDESK"
       id="text69544"
       style="font-weight:bold;font-size:70.5556px;line-height:1.25;font-family:Georgia;-inkscape-font-specification:'Georgia, Bold';fill:#f79700;stroke-width:0.264583">
      <path
         d="m 215.44404,130.58012 q -4.47863,0 -8.37159,-1.10243 -3.85851,-1.10243 -6.54569,-2.61828 l -2.37711,2.41157 h -2.92834 l -0.44786,-17.67335 h 2.96278 q 0.99908,2.51492 2.54938,5.30545 1.55029,2.79053 3.5829,4.99539 2.10151,2.30822 4.68533,3.75516 2.61828,1.44694 6.09783,1.44694 4.68533,0 7.1658,-2.27377 2.51492,-2.30821 2.51492,-5.78776 0,-2.85943 -2.13596,-4.78869 -2.10151,-1.9637 -6.54569,-3.37619 -2.89388,-0.93018 -5.3399,-1.72255 -2.41157,-0.79237 -4.54753,-1.6192 -4.92649,-1.9637 -7.33806,-5.61551 -2.37711,-3.651799 -2.37711,-8.164878 0,-2.859431 1.24023,-5.477705 1.24024,-2.652725 3.61735,-4.754235 2.27377,-1.963706 5.82222,-3.203941 3.54845,-1.240235 7.71702,-1.240235 4.06521,0 7.61367,1.136882 3.54845,1.102431 5.58105,2.239314 l 2.10151,-2.067059 h 2.99724 l 0.27561,16.674273 h -2.96279 q -1.03353,-2.687176 -2.44602,-5.477705 -1.37804,-2.82498 -2.92833,-4.685333 -1.6881,-1.998157 -3.89296,-3.16949 -2.20486,-1.205784 -5.16765,-1.205784 -3.7207,0 -6.09782,2.101509 -2.34267,2.10151 -2.34267,5.202098 0,2.928333 2.03261,4.788686 2.06706,1.860353 6.40788,3.272843 2.54937,0.861274 5.2021,1.722549 2.65273,0.861271 4.71978,1.653651 4.9954,1.92925 7.57922,5.3399 2.61827,3.37619 2.61827,8.40604 0,3.16949 -1.48139,6.13227 -1.48139,2.96278 -3.99631,4.92649 -2.75608,2.17041 -6.37343,3.34174 -3.61736,1.17134 -8.44049,1.17134 z"
         id="path1006" />
      <path
         d="m 286.1719,94.37214 h -2.65273 q -1.06798,-3.135039 -3.4451,-6.717941 -2.34266,-3.582901 -4.34082,-3.858509 -1.10243,-0.137804 -2.72163,-0.241157 -1.61919,-0.103353 -2.79053,-0.103353 h -1.61919 v 38.34394 q 0,1.24023 0.44786,2.20486 0.44786,0.93018 1.757,1.48139 0.79237,0.31006 2.44602,0.65457 1.6881,0.31006 2.85943,0.44786 v 2.68718 h -27.25072 v -2.68718 q 0.99908,-0.10335 2.79053,-0.2756 1.8259,-0.20671 2.48047,-0.48232 1.34359,-0.55121 1.79145,-1.48139 0.44786,-0.93018 0.44786,-2.20486 V 83.45118 h -1.6192 q -1.17133,0 -2.79052,0.103353 -1.6192,0.103353 -2.72163,0.241157 -1.99816,0.275608 -4.37528,3.858509 -2.34266,3.582902 -3.41064,6.717941 H 238.8018 V 80.385043 h 47.3701 z"
         id="path1008" />
      <path
         d="m 334.16211,85.828298 q 3.61735,3.307293 5.71886,7.992626 2.13596,4.685333 2.13596,10.679806 0,5.3399 -1.79145,10.16304 -1.79145,4.82313 -5.16765,8.30268 -3.54845,3.61735 -8.33713,5.64996 -4.78869,1.99816 -11.40328,1.99816 -5.3399,0 -10.09413,-1.757 -4.75424,-1.757 -8.37159,-5.09875 -3.5829,-3.27284 -5.68441,-7.95817 -2.10151,-4.68533 -2.10151,-10.43865 0,-5.994468 2.03261,-10.852056 2.06705,-4.892039 5.64996,-8.371588 3.54845,-3.410646 8.40603,-5.236548 4.89204,-1.860353 10.4042,-1.860353 5.47771,0 10.26639,1.791451 4.82314,1.791451 8.33714,4.995392 z m -8.8539,34.967742 q 1.55029,-3.13504 2.23931,-7.0969 0.68902,-3.96186 0.68902,-8.95726 0,-4.23747 -0.62012,-8.233779 -0.58566,-4.030765 -2.03261,-7.165804 -1.48139,-3.135039 -3.92741,-5.029843 -2.44602,-1.894803 -6.09782,-1.894803 -6.23563,0 -9.47402,5.925568 -3.23839,5.891117 -3.23839,16.674271 0,4.58198 0.68902,8.6472 0.72347,4.06521 2.23931,7.0969 1.5503,3.06614 3.92741,4.78869 2.37712,1.68809 5.85667,1.68809 3.41065,0 5.85667,-1.72255 2.44602,-1.72254 3.89296,-4.71978 z"
         id="path1010" />
      <path
         d="m 402.96071,129.27098 h -18.74133 q -4.85759,-7.44141 -8.09598,-11.85114 -3.20394,-4.40972 -7.99263,-10.19749 h -1.8948 v 14.84838 q 0,1.24023 0.44786,2.10151 0.48232,0.86127 1.79145,1.44694 0.65457,0.2756 2.03261,0.58566 1.41249,0.27561 2.41157,0.37896 v 2.68718 h -26.07939 v -2.68718 q 0.99908,-0.10335 2.61827,-0.2756 1.65365,-0.20671 2.34267,-0.48232 1.30914,-0.55121 1.757,-1.37804 0.44786,-0.86127 0.44786,-2.17041 V 87.792003 q 0,-1.240235 -0.37896,-2.067058 -0.37896,-0.826824 -1.8259,-1.446941 -1.10243,-0.447863 -2.61827,-0.757922 -1.4814,-0.310059 -2.34267,-0.447863 v -2.687176 h 27.42298 q 9.19841,0 13.95264,2.893882 4.78869,2.859431 4.78869,8.681647 0,5.133195 -2.96278,8.268238 -2.92834,3.10058 -8.95726,4.85758 2.34267,3.03169 5.44326,7.028 3.13503,3.99632 6.51123,8.16489 1.06798,1.34358 2.89388,3.30729 1.86036,1.92925 3.27285,2.37712 0.79237,0.24115 1.99815,0.41341 1.24024,0.17225 1.757,0.2067 z M 379.4996,92.925199 q 0,-4.892039 -2.75608,-7.131352 -2.72163,-2.273765 -7.78592,-2.273765 h -2.72163 v 20.463878 h 2.61827 q 5.0643,0 7.85483,-2.65272 2.79053,-2.652728 2.79053,-8.406041 z"
         id="path1012" />
      <path
         d="m 446.43784,92.856297 h -2.61828 q -0.99908,-2.790529 -3.44509,-5.64996 -2.44602,-2.859432 -4.85759,-3.376196 -1.03353,-0.241157 -2.89388,-0.275608 -1.82591,-0.0689 -3.03169,-0.0689 h -7.0969 v 18.879137 h 5.02984 q 1.8948,0 3.4451,-0.44787 1.55029,-0.44786 2.82498,-1.72254 0.79237,-0.792375 1.58474,-2.790532 0.82683,-1.998157 1.06798,-3.479549 h 2.61828 v 20.394981 h -2.61828 q -0.2067,-1.44694 -1.06798,-3.61736 -0.82682,-2.20486 -1.58474,-3.03168 -1.13688,-1.24024 -2.68718,-1.6881 -1.55029,-0.48231 -3.5829,-0.48231 h -5.02984 v 14.09045 q 0,2.20486 0.31006,3.514 0.34451,1.27468 1.24023,1.9637 0.86128,0.65457 2.34267,0.86128 1.51584,0.2067 4.09966,0.2067 1.20579,0 2.89389,-0.0345 1.68809,-0.0344 2.96278,-0.20671 1.44694,-0.17225 2.68718,-0.51676 1.27468,-0.34451 1.8948,-0.99908 1.65365,-1.6881 3.72071,-5.13319 2.06706,-3.47955 2.72162,-5.2021 h 2.51493 l -0.93018,15.22733 h -45.85425 v -2.68718 q 0.96462,-0.0689 2.61827,-0.2756 1.65365,-0.20671 2.34267,-0.48232 1.30914,-0.55121 1.757,-1.37804 0.44786,-0.86127 0.44786,-2.17041 V 87.792003 q 0,-1.240235 -0.37896,-2.032607 -0.37896,-0.826824 -1.8259,-1.481392 -0.89573,-0.413412 -2.51492,-0.757922 -1.6192,-0.34451 -2.44602,-0.447863 v -2.687176 h 43.33933 z"
         id="path1014" />
      <path
         d="m 498.01095,85.414886 q 4.47863,2.928333 7.23471,7.820372 2.75608,4.857588 2.75608,11.920042 0,6.20117 -2.48048,10.8176 -2.44601,4.58198 -6.51123,7.51032 -4.13412,2.92833 -9.40512,4.37527 -5.23655,1.41249 -10.98986,1.41249 H 453.9826 v -2.68718 q 1.10243,-0.0344 2.75608,-0.2067 1.65365,-0.17226 2.20486,-0.41341 1.24024,-0.51677 1.72255,-1.37804 0.48231,-0.89573 0.48231,-2.13596 V 87.792003 q 0,-1.171333 -0.44786,-2.101509 -0.44786,-0.964628 -1.757,-1.550294 -1.30913,-0.585667 -2.79053,-0.792373 -1.44694,-0.206706 -2.23931,-0.275608 v -2.687176 h 26.01049 q 4.16857,0 8.9228,1.06798 4.75424,1.067981 9.16396,3.961863 z m -7.028,35.036644 q 1.6881,-2.75608 2.44602,-6.54569 0.79237,-3.82405 0.79237,-8.78499 0,-4.85759 -1.03353,-8.853906 -1.03352,-3.996314 -3.03168,-6.821294 -1.99816,-2.82498 -4.99539,-4.375274 -2.96279,-1.550294 -6.7524,-1.550294 -1.20578,0 -2.75607,0.0689 -1.51585,0.03445 -2.27377,0.0689 v 37.103708 q 0,1.24023 0.31006,2.20486 0.34451,0.93018 1.13688,1.65365 0.79238,0.72347 1.92926,1.13688 1.17133,0.37896 3.03168,0.37896 3.89296,0 6.68349,-1.44694 2.79053,-1.44694 4.51308,-4.23747 z"
         id="path1016" />
      <path
         d="m 556.16422,92.856297 h -2.61828 q -0.99908,-2.790529 -3.4451,-5.64996 -2.44601,-2.859432 -4.85758,-3.376196 -1.03353,-0.241157 -2.89389,-0.275608 -1.8259,-0.0689 -3.03168,-0.0689 h -7.0969 v 18.879137 h 5.02984 q 1.8948,0 3.4451,-0.44787 1.55029,-0.44786 2.82498,-1.72254 0.79237,-0.792375 1.58474,-2.790532 0.82683,-1.998157 1.06798,-3.479549 h 2.61828 v 20.394981 h -2.61828 q -0.2067,-1.44694 -1.06798,-3.61736 -0.82682,-2.20486 -1.58474,-3.03168 -1.13688,-1.24024 -2.68718,-1.6881 -1.55029,-0.48231 -3.5829,-0.48231 h -5.02984 v 14.09045 q 0,2.20486 0.31006,3.514 0.34451,1.27468 1.24023,1.9637 0.86128,0.65457 2.34267,0.86128 1.51584,0.2067 4.09966,0.2067 1.20579,0 2.89389,-0.0345 1.68809,-0.0344 2.96278,-0.20671 1.44694,-0.17225 2.68718,-0.51676 1.27468,-0.34451 1.8948,-0.99908 1.65365,-1.6881 3.72071,-5.13319 2.06705,-3.47955 2.72162,-5.2021 h 2.51492 l -0.93017,15.22733 h -45.85425 v -2.68718 q 0.96462,-0.0689 2.61827,-0.2756 1.65365,-0.20671 2.34267,-0.48232 1.30913,-0.55121 1.757,-1.37804 0.44786,-0.86127 0.44786,-2.17041 V 87.792003 q 0,-1.240235 -0.37896,-2.032607 -0.37896,-0.826824 -1.8259,-1.481392 -0.89573,-0.413412 -2.51492,-0.757922 -1.6192,-0.34451 -2.44602,-0.447863 v -2.687176 h 43.33933 z"
         id="path1018" />
      <path
         d="m 584.20731,130.58012 q -4.47862,0 -8.37158,-1.10243 -3.85851,-1.10243 -6.54569,-2.61828 l -2.37712,2.41157 h -2.92833 l -0.44786,-17.67335 h 2.96278 q 0.99908,2.51492 2.54937,5.30545 1.5503,2.79053 3.5829,4.99539 2.10151,2.30822 4.68534,3.75516 2.61827,1.44694 6.09782,1.44694 4.68533,0 7.1658,-2.27377 2.51493,-2.30821 2.51493,-5.78776 0,-2.85943 -2.13597,-4.78869 -2.10151,-1.9637 -6.54568,-3.37619 -2.89388,-0.93018 -5.3399,-1.72255 -2.41157,-0.79237 -4.54753,-1.6192 -4.92649,-1.9637 -7.33806,-5.61551 -2.37712,-3.651799 -2.37712,-8.164878 0,-2.859431 1.24024,-5.477705 1.24023,-2.652725 3.61735,-4.754235 2.27376,-1.963706 5.82222,-3.203941 3.54845,-1.240235 7.71701,-1.240235 4.06522,0 7.61367,1.136882 3.54845,1.102431 5.58106,2.239314 l 2.10151,-2.067059 h 2.99723 l 0.27561,16.674273 h -2.96278 q -1.03353,-2.687176 -2.44602,-5.477705 -1.37804,-2.82498 -2.92834,-4.685333 -1.68809,-1.998157 -3.89296,-3.16949 -2.20486,-1.205784 -5.16764,-1.205784 -3.72071,0 -6.09783,2.101509 -2.34266,2.10151 -2.34266,5.202098 0,2.928333 2.03261,4.788686 2.06705,1.860353 6.40788,3.272843 2.54937,0.861274 5.2021,1.722549 2.65272,0.861271 4.71978,1.653651 4.99539,1.92925 7.57921,5.3399 2.61828,3.37619 2.61828,8.40604 0,3.16949 -1.48139,6.13227 -1.4814,2.96278 -3.99632,4.92649 -2.75607,2.17041 -6.37343,3.34174 -3.61735,1.17134 -8.44049,1.17134 z"
         id="path1020" />
      <path
         d="m 666.9241,129.27098 h -19.36145 q -4.37527,-6.71794 -7.88927,-11.23102 -3.514,-4.51308 -8.99171,-11.33437 h -1.79145 v 15.36514 q 0,1.24023 0.44786,2.10151 0.44787,0.86127 1.79145,1.44694 0.62012,0.2756 1.82591,0.55121 1.24023,0.27561 2.44602,0.41341 v 2.68718 h -25.97604 v -2.68718 q 0.93017,-0.0689 2.61827,-0.2067 1.72255,-0.13781 2.41157,-0.41341 1.24024,-0.48232 1.72255,-1.34359 0.48231,-0.86128 0.48231,-2.17041 V 87.792003 q 0,-1.205784 -0.41341,-2.032607 -0.41341,-0.826824 -1.79145,-1.481392 -1.06798,-0.482314 -2.58382,-0.792373 -1.51585,-0.310059 -2.44602,-0.413412 v -2.687176 h 26.83731 v 2.687176 q -1.06798,0.103353 -2.58382,0.310059 -1.4814,0.172255 -2.54938,0.516765 -1.34358,0.447862 -1.79145,1.41249 -0.44786,0.964627 -0.44786,2.13596 v 16.467567 h 1.44694 q 2.68718,-2.44602 6.27008,-5.891116 3.5829,-3.445098 5.54661,-5.649961 2.75608,-3.066137 4.03076,-4.857588 1.30914,-1.79145 1.30914,-3.100588 0,-0.585666 -1.24024,-0.895725 -1.24023,-0.310059 -3.7896,-0.447863 v -2.687176 h 21.25625 v 2.687176 q -3.85851,0.413412 -6.47678,1.41249 -2.61828,0.964628 -5.2021,3.272843 -3.68626,3.307294 -6.09782,5.753314 -2.37712,2.411568 -6.13228,6.201176 3.30729,4.030768 7.95818,9.887428 4.65088,5.82222 9.26731,11.36883 1.17133,1.41249 2.68718,2.72162 1.51584,1.27469 3.34174,2.06706 0.86128,0.37896 1.96371,0.58567 1.10243,0.2067 1.8948,0.24115 z"
         id="path1022" />
    </g>
  </g>
</svg>
